<?xml version="1.0" encoding="UTF-8" standalone="no"?>
<svg
   xmlns:dc="http://purl.org/dc/elements/1.1/"
   xmlns:cc="http://web.resource.org/cc/"
   xmlns:rdf="http://www.w3.org/1999/02/22-rdf-syntax-ns#"
   xmlns:svg="http://www.w3.org/2000/svg"
   xmlns="http://www.w3.org/2000/svg"
   xmlns:xlink="http://www.w3.org/1999/xlink"
   xmlns:sodipodi="http://inkscape.sourceforge.net/DTD/sodipodi-0.dtd"
   xmlns:inkscape="http://www.inkscape.org/namespaces/inkscape"
   version="1.0"
   baseProfile="full"
   preserveAspectRatio="xMidYMid meet"
   zoomAndPan="magnify"
   id="Food Logo"
   viewBox="-160 -160 320 280"
   width="146"
   height="106"
   sodipodi:version="0.32"
   inkscape:version="0.43+devel"
   sodipodi:docname="Foodlogo.svg"
   sodipodi:docbase="C:\Documents and Settings\Admin\My Documents">
  <metadata
     id="metadata1923">
    <rdf:RDF>
      <cc:Work
         rdf:about="">
        <dc:format>image/svg+xml</dc:format>
        <dc:type
           rdf:resource="http://purl.org/dc/dcmitype/StillImage" />
      </cc:Work>
    </rdf:RDF>
  </metadata>
  <sodipodi:namedview
     inkscape:window-height="954"
     inkscape:window-width="1280"
     inkscape:pageshadow="2"
     inkscape:pageopacity="0.0"
     borderopacity="1.0"
     bordercolor="#666666"
     pagecolor="#ffffff"
     id="base"
     width="128px"
     height="106px"
     inkscape:object-points="true"
     inkscape:object-bbox="true"
     inkscape:object-nodes="true"
     objecttolerance="1"
     inkscape:zoom="2"
     inkscape:cx="40.171156"
     inkscape:cy="64.490188"
     inkscape:window-x="-4"
     inkscape:window-y="-4"
     inkscape:current-layer="Food Logo"
     inkscape:grid-points="true"
     gridtolerance="3.3" />
  <defs
     id="defs1905">
    <linearGradient
       id="linearGradient44016">
      <stop
         id="stop44018"
         stop-color="white"
         offset="0"
         style="stop-color:black;stop-opacity:0.07843138;" />
      <stop
         style="stop-color:black;stop-opacity:0.27450982;"
         id="stop44020"
         stop-color="#BBB"
         offset="1" />
    </linearGradient>
    <linearGradient
       id="linearGradient26660">
      <stop
         style="stop-color:#ddd;stop-opacity:1;"
         offset="0"
         id="stop26662" />
      <stop
         style="stop-color:#7f7f7f;stop-opacity:1;"
         offset="1"
         id="stop26664" />
    </linearGradient>
    <linearGradient
       id="gradient">
      <stop
         offset="0"
         stop-color="white"
         id="stop1908" />
      <stop
         offset="1"
         stop-color="#BBB"
         id="stop1910"
         style="stop-color:#d3d3d3;stop-opacity:1;" />
    </linearGradient>
    <linearGradient
       inkscape:collect="always"
       xlink:href="#linearGradient26660"
       id="linearGradient26666"
       x1="-145.90625"
       y1="-144.40625"
       x2="-111.59375"
       y2="96.40625"
       gradientUnits="userSpaceOnUse"
       gradientTransform="translate(-3.669025,15.40625)" />
    <linearGradient
       inkscape:collect="always"
       xlink:href="#gradient"
       id="linearGradient26685"
       gradientUnits="userSpaceOnUse"
       x1="-148.40625"
       y1="-146.90625"
       x2="-109.09375"
       y2="98.90625"
       gradientTransform="translate(-3.669025,15.40625)" />
    <linearGradient
       inkscape:collect="always"
       xlink:href="#gradient"
       id="linearGradient29312"
       x1="-148.40625"
       y1="-146.90625"
       x2="-109.09375"
       y2="98.90625"
       gradientUnits="userSpaceOnUse"
       gradientTransform="translate(-3.669025,15.40625)" />
    <linearGradient
       inkscape:collect="always"
       xlink:href="#gradient"
       id="linearGradient38065"
       x1="109.28699"
       y1="-148.05621"
       x2="144.09375"
       y2="99.59375"
       gradientUnits="userSpaceOnUse"
       gradientTransform="translate(59.73723,15.40625)" />
    <linearGradient
       inkscape:collect="always"
       xlink:href="#linearGradient26660"
       id="linearGradient38946"
       x1="112.53279"
       y1="-144.89876"
       x2="140.90625"
       y2="96.40625"
       gradientUnits="userSpaceOnUse"
       gradientTransform="translate(59.73723,15.40625)" />
    <linearGradient
       inkscape:collect="always"
       xlink:href="#linearGradient44016"
       id="linearGradient51239"
       gradientUnits="userSpaceOnUse"
       x1="-67.5"
       y1="0"
       x2="67.5"
       y2="0" />
    <linearGradient
       inkscape:collect="always"
       xlink:href="#linearGradient44016"
       id="linearGradient55647"
       gradientUnits="userSpaceOnUse"
       x1="-67.5"
       y1="0"
       x2="67.5"
       y2="0" />
    <linearGradient
       inkscape:collect="always"
       xlink:href="#gradient"
       id="linearGradient55649"
       gradientUnits="userSpaceOnUse"
       gradientTransform="translate(59.73723,15.40625)"
       x1="109.28699"
       y1="-148.05621"
       x2="144.09375"
       y2="99.59375" />
    <linearGradient
       inkscape:collect="always"
       xlink:href="#linearGradient26660"
       id="linearGradient55651"
       gradientUnits="userSpaceOnUse"
       gradientTransform="translate(59.73723,15.40625)"
       x1="112.53279"
       y1="-144.89876"
       x2="140.90625"
       y2="96.40625" />
    <linearGradient
       inkscape:collect="always"
       xlink:href="#gradient"
       id="linearGradient55653"
       gradientUnits="userSpaceOnUse"
       gradientTransform="translate(-3.669025,15.40625)"
       x1="-148.40625"
       y1="-146.90625"
       x2="-109.09375"
       y2="98.90625" />
    <linearGradient
       inkscape:collect="always"
       xlink:href="#gradient"
       id="linearGradient55655"
       gradientUnits="userSpaceOnUse"
       gradientTransform="translate(-3.669025,15.40625)"
       x1="-148.40625"
       y1="-146.90625"
       x2="-109.09375"
       y2="98.90625" />
    <linearGradient
       inkscape:collect="always"
       xlink:href="#linearGradient26660"
       id="linearGradient55657"
       gradientUnits="userSpaceOnUse"
       gradientTransform="translate(-3.669025,15.40625)"
       x1="-145.90625"
       y1="-144.40625"
       x2="-111.59375"
       y2="96.40625" />
    <linearGradient
       inkscape:collect="always"
       xlink:href="#gradient"
       id="linearGradient55675"
       gradientUnits="userSpaceOnUse"
       gradientTransform="translate(-3.669025,15.40625)"
       x1="-148.40625"
       y1="-146.90625"
       x2="-109.09375"
       y2="98.90625" />
    <linearGradient
       inkscape:collect="always"
       xlink:href="#gradient"
       id="linearGradient55677"
       gradientUnits="userSpaceOnUse"
       gradientTransform="translate(-3.669025,15.40625)"
       x1="-148.40625"
       y1="-146.90625"
       x2="-109.09375"
       y2="98.90625" />
    <linearGradient
       inkscape:collect="always"
       xlink:href="#linearGradient26660"
       id="linearGradient55679"
       gradientUnits="userSpaceOnUse"
       gradientTransform="translate(-3.669025,15.40625)"
       x1="-145.90625"
       y1="-144.40625"
       x2="-111.59375"
       y2="96.40625" />
    <linearGradient
       inkscape:collect="always"
       xlink:href="#gradient"
       id="linearGradient55681"
       gradientUnits="userSpaceOnUse"
       gradientTransform="translate(59.73723,15.40625)"
       x1="109.28699"
       y1="-148.05621"
       x2="144.09375"
       y2="99.59375" />
    <linearGradient
       inkscape:collect="always"
       xlink:href="#linearGradient26660"
       id="linearGradient55683"
       gradientUnits="userSpaceOnUse"
       gradientTransform="translate(59.73723,15.40625)"
       x1="112.53279"
       y1="-144.89876"
       x2="140.90625"
       y2="96.40625" />
    <linearGradient
       inkscape:collect="always"
       xlink:href="#linearGradient44016"
       id="linearGradient55685"
       gradientUnits="userSpaceOnUse"
       x1="-67.5"
       y1="0"
       x2="67.5"
       y2="0" />
    <linearGradient
       inkscape:collect="always"
       xlink:href="#gradient"
       id="linearGradient56627"
       gradientUnits="userSpaceOnUse"
       gradientTransform="translate(-3.669025,15.40625)"
       x1="-148.40625"
       y1="-146.90625"
       x2="-109.09375"
       y2="98.90625" />
    <linearGradient
       inkscape:collect="always"
       xlink:href="#gradient"
       id="linearGradient56629"
       gradientUnits="userSpaceOnUse"
       gradientTransform="translate(-3.669025,15.40625)"
       x1="-148.40625"
       y1="-146.90625"
       x2="-109.09375"
       y2="98.90625" />
    <linearGradient
       inkscape:collect="always"
       xlink:href="#linearGradient26660"
       id="linearGradient56631"
       gradientUnits="userSpaceOnUse"
       gradientTransform="translate(-3.669025,15.40625)"
       x1="-145.90625"
       y1="-144.40625"
       x2="-111.59375"
       y2="96.40625" />
    <linearGradient
       inkscape:collect="always"
       xlink:href="#gradient"
       id="linearGradient56633"
       gradientUnits="userSpaceOnUse"
       gradientTransform="translate(59.73723,15.40625)"
       x1="109.28699"
       y1="-148.05621"
       x2="144.09375"
       y2="99.59375" />
    <linearGradient
       inkscape:collect="always"
       xlink:href="#linearGradient26660"
       id="linearGradient56635"
       gradientUnits="userSpaceOnUse"
       gradientTransform="translate(59.73723,15.40625)"
       x1="112.53279"
       y1="-144.89876"
       x2="140.90625"
       y2="96.40625" />
    <linearGradient
       inkscape:collect="always"
       xlink:href="#linearGradient44016"
       id="linearGradient56637"
       gradientUnits="userSpaceOnUse"
       x1="-67.5"
       y1="0"
       x2="67.5"
       y2="0" />
    <linearGradient
       inkscape:collect="always"
       xlink:href="#gradient"
       id="linearGradient56654"
       gradientUnits="userSpaceOnUse"
       gradientTransform="translate(-3.669025,15.40625)"
       x1="-148.40625"
       y1="-146.90625"
       x2="-109.09375"
       y2="98.90625" />
    <linearGradient
       inkscape:collect="always"
       xlink:href="#gradient"
       id="linearGradient56656"
       gradientUnits="userSpaceOnUse"
       gradientTransform="translate(-3.669025,15.40625)"
       x1="-148.40625"
       y1="-146.90625"
       x2="-109.09375"
       y2="98.90625" />
    <linearGradient
       inkscape:collect="always"
       xlink:href="#linearGradient26660"
       id="linearGradient56658"
       gradientUnits="userSpaceOnUse"
       gradientTransform="translate(-3.669025,15.40625)"
       x1="-145.90625"
       y1="-144.40625"
       x2="-111.59375"
       y2="96.40625" />
    <linearGradient
       inkscape:collect="always"
       xlink:href="#gradient"
       id="linearGradient56660"
       gradientUnits="userSpaceOnUse"
       gradientTransform="translate(59.73723,15.40625)"
       x1="109.28699"
       y1="-148.05621"
       x2="144.09375"
       y2="99.59375" />
    <linearGradient
       inkscape:collect="always"
       xlink:href="#linearGradient26660"
       id="linearGradient56662"
       gradientUnits="userSpaceOnUse"
       gradientTransform="translate(59.73723,15.40625)"
       x1="112.53279"
       y1="-144.89876"
       x2="140.90625"
       y2="96.40625" />
    <linearGradient
       inkscape:collect="always"
       xlink:href="#linearGradient44016"
       id="linearGradient56664"
       gradientUnits="userSpaceOnUse"
       x1="-67.5"
       y1="0"
       x2="67.5"
       y2="0" />
    <linearGradient
       inkscape:collect="always"
       xlink:href="#linearGradient44016"
       id="linearGradient56680"
       gradientUnits="userSpaceOnUse"
       x1="-67.5"
       y1="0"
       x2="67.5"
       y2="0" />
    <linearGradient
       inkscape:collect="always"
       xlink:href="#linearGradient44016"
       id="linearGradient56685"
       gradientUnits="userSpaceOnUse"
       x1="-67.5"
       y1="0"
       x2="67.5"
       y2="0" />
  </defs>
  <g
     id="g55630"
     transform="matrix(1.005282,0,0,1.005282,-28.18863,-13.87406)">
    <path
       id="path52989"
       d="M -142.40625,-134.0625 C -147.07859,-134.0625 -150.47854,-131.17807 -152.25,-128.34375 C -153.9199,-125.67191 -154.625,-122.64582 -154.625,-119.59375 L -154.625,-23.59375 C -154.625,-16.653959 -152.95564,-10.197777 -149.6875,-4.96875 C -147.81893,-1.9790461 -145.2207,0.54219133 -142.125,2.3125 L -142.125,108.40625 C -142.125,112.60178 -141.11081,116.59146 -139,119.96875 C -136.82238,123.45295 -132.80474,126.875 -127.40625,126.875 C -122.00776,126.875 -118.02137,123.45295 -115.84375,119.96875 C -113.73294,116.59145 -112.6875,112.60178 -112.6875,108.40625 L -112.6875,2.28125 C -109.60866,0.51116087 -107.01733,-1.9910313 -105.15625,-4.96875 C -101.8881,-10.197779 -100.1875,-16.65396 -100.1875,-23.59375 L -100.1875,-119.59375 C -100.1875,-122.64582 -100.92384,-125.6719 -102.59375,-128.34375 C -104.36521,-131.17808 -107.73391,-134.0625 -112.40625,-134.0625 C -115.53041,-134.0625 -118.03038,-132.73689 -119.90625,-131.03125 C -121.78325,-132.74228 -124.27543,-134.0625 -127.40625,-134.0625 C -130.53041,-134.0625 -133.03038,-132.73689 -134.90625,-131.03125 C -136.78325,-132.74228 -139.27543,-134.0625 -142.40625,-134.0625 z "
       style="fill:black;fill-opacity:0.2;fill-rule:nonzero;stroke:none;stroke-width:13.75;stroke-miterlimit:4;stroke-dasharray:none;stroke-opacity:1" />
    <path
       id="path1916"
       d="M -147.41902,-132.1875 C -149.13816,-132.1875 -150.54883,-131.0798 -151.41902,-129.6875 C -152.28921,-128.2952 -152.76277,-126.51764 -152.76277,-124.59375 L -152.76277,-28.59375 C -152.76277,-22.803868 -151.31015,-17.550804 -148.85652,-13.625 C -146.72928,-10.22142 -143.71331,-7.876447 -140.26277,-7.28125 L -140.26277,103.40625 C -140.26277,106.43471 -139.49162,109.19634 -138.16902,111.3125 C -136.84642,113.42866 -134.82852,115 -132.41902,115 C -130.00952,115 -127.99162,113.42866 -126.66902,111.3125 C -125.34642,109.19634 -124.57527,106.43471 -124.57527,103.40625 L -124.57527,-7.28125 C -121.12473,-7.876447 -118.10876,-10.22142 -115.98152,-13.625 C -113.52789,-17.550804 -112.07527,-22.803868 -112.07527,-28.59375 L -112.07527,-124.59375 C -112.07527,-126.51764 -112.54883,-128.2952 -113.41902,-129.6875 C -114.28921,-131.0798 -115.69988,-132.1875 -117.41902,-132.1875 C -119.13816,-132.1875 -120.54883,-131.0798 -121.41902,-129.6875 C -122.28921,-128.2952 -122.76277,-126.51764 -122.76277,-124.59375 L -122.76277,-28.59375 C -122.76277,-27.20393 -123.11948,-25.96677 -123.60652,-25.1875 C -124.09356,-24.40823 -124.56709,-24.1875 -124.91902,-24.1875 C -125.27095,-24.1875 -125.74448,-24.40823 -126.23152,-25.1875 C -126.71856,-25.96677 -127.07527,-27.20393 -127.07527,-28.59375 L -127.07527,-124.59375 C -127.07527,-126.51764 -127.54883,-128.2952 -128.41902,-129.6875 C -129.28921,-131.0798 -130.69988,-132.1875 -132.41902,-132.1875 C -134.13816,-132.1875 -135.54883,-131.0798 -136.41902,-129.6875 C -137.28921,-128.2952 -137.76277,-126.51764 -137.76277,-124.59375 L -137.76277,-28.59375 C -137.76277,-27.20393 -138.11948,-25.96677 -138.60652,-25.1875 C -139.09356,-24.40823 -139.56709,-24.1875 -139.91902,-24.1875 C -140.27095,-24.1875 -140.74448,-24.40823 -141.23152,-25.1875 C -141.71856,-25.96677 -142.07527,-27.20393 -142.07527,-28.59375 L -142.07527,-124.59375 C -142.07527,-126.51764 -142.54883,-128.2952 -143.41902,-129.6875 C -144.28921,-131.0798 -145.69988,-132.1875 -147.41902,-132.1875 z "
       style="fill:#333;fill-opacity:1;stroke:#2d2d2d;stroke-width:13.75;stroke-miterlimit:4;stroke-dasharray:none;stroke-opacity:1" />
    <path
       id="path26681"
       d="M -147.41902,-130.25 C -148.29362,-130.25 -149.17021,-129.65435 -149.79402,-128.65625 C -150.45081,-127.60537 -150.82527,-126.19745 -150.82527,-124.59375 L -150.82527,-28.59375 C -150.82527,-23.126145 -149.45819,-18.18768 -147.23152,-14.625 C -145.01261,-11.074735 -141.97334,-8.9375 -138.66902,-8.9375 L -138.32527,-8.9375 L -138.32527,-8.59375 L -138.32527,103.40625 C -138.32527,106.10879 -137.67641,108.51943 -136.57527,110.28125 C -135.49123,112.01572 -134.00848,113.0625 -132.41902,113.0625 C -130.82956,113.0625 -129.34681,112.01572 -128.26277,110.28125 C -127.16163,108.51943 -126.51277,106.10879 -126.51277,103.40625 L -126.51277,-8.59375 L -126.51277,-8.9375 L -126.16902,-8.9375 C -122.8647,-8.9375 -119.82543,-11.074735 -117.60652,-14.625 C -115.37985,-18.18768 -114.01277,-23.126145 -114.01277,-28.59375 L -114.01277,-124.59375 C -114.01277,-126.19745 -114.38723,-127.60537 -115.04402,-128.65625 C -115.66783,-129.65435 -116.54442,-130.25 -117.41902,-130.25 C -118.29362,-130.25 -119.17021,-129.65435 -119.79402,-128.65625 C -120.45081,-127.60537 -120.82527,-126.19745 -120.82527,-124.59375 L -120.82527,-28.59375 C -120.82527,-26.874984 -121.25673,-25.315909 -121.98152,-24.15625 C -122.68784,-23.026134 -123.73682,-22.25 -124.91902,-22.25 C -126.10122,-22.25 -127.1502,-23.026134 -127.85652,-24.15625 C -128.58131,-25.315909 -129.01277,-26.874984 -129.01277,-28.59375 L -129.01277,-124.59375 C -129.01277,-126.19745 -129.38723,-127.60537 -130.04402,-128.65625 C -130.66783,-129.65435 -131.54442,-130.25 -132.41902,-130.25 C -133.29362,-130.25 -134.17021,-129.65435 -134.79402,-128.65625 C -135.45081,-127.60537 -135.82527,-126.19745 -135.82527,-124.59375 L -135.82527,-28.59375 C -135.82527,-26.874984 -136.25673,-25.315909 -136.98152,-24.15625 C -137.68784,-23.026134 -138.73682,-22.25 -139.91902,-22.25 C -141.10122,-22.25 -142.1502,-23.026134 -142.85652,-24.15625 C -143.58131,-25.315909 -144.01277,-26.874984 -144.01277,-28.59375 L -144.01277,-124.59375 C -144.01277,-126.19745 -144.38723,-127.60537 -145.04402,-128.65625 C -145.66783,-129.65435 -146.54442,-130.25 -147.41902,-130.25 z M -147.41902,-127.75 C -147.58976,-127.75 -147.51929,-127.90419 -147.16902,-127.34375 C -146.85173,-126.83609 -146.51277,-125.76969 -146.51277,-124.59375 L -146.51277,-28.59375 C -146.51277,-26.464738 -145.99711,-24.468697 -144.98152,-22.84375 C -143.94746,-21.18926 -142.1751,-19.75 -139.91902,-19.75 C -137.66294,-19.75 -135.89058,-21.18926 -134.85652,-22.84375 C -133.84093,-24.468697 -133.32527,-26.464738 -133.32527,-28.59375 L -133.32527,-124.59375 C -133.32527,-125.76969 -132.98631,-126.83609 -132.66902,-127.34375 C -132.31875,-127.90419 -132.24828,-127.75 -132.41902,-127.75 C -132.58976,-127.75 -132.51929,-127.90419 -132.16902,-127.34375 C -131.85173,-126.83609 -131.51277,-125.76969 -131.51277,-124.59375 L -131.51277,-28.59375 C -131.51277,-26.464738 -130.99711,-24.468697 -129.98152,-22.84375 C -128.94746,-21.18926 -127.1751,-19.75 -124.91902,-19.75 C -122.66294,-19.75 -120.89058,-21.18926 -119.85652,-22.84375 C -118.84093,-24.468697 -118.32527,-26.464738 -118.32527,-28.59375 L -118.32527,-124.59375 C -118.32527,-125.76969 -117.98631,-126.83609 -117.66902,-127.34375 C -117.31875,-127.90419 -117.24828,-127.75 -117.41902,-127.75 C -117.58976,-127.75 -117.51929,-127.90419 -117.16902,-127.34375 C -116.85173,-126.83609 -116.51277,-125.76969 -116.51277,-124.59375 L -116.51277,-28.59375 C -116.51277,-23.549729 -117.81723,-19.000364 -119.73152,-15.9375 C -121.65357,-12.862221 -123.937,-11.4375 -126.16902,-11.4375 L -127.76277,-11.4375 L -129.01277,-11.4375 L -129.01277,-10.1875 L -129.01277,-8.59375 L -129.01277,103.40625 C -129.01277,105.69249 -129.61001,107.72432 -130.38777,108.96875 C -131.18263,110.24054 -131.92392,110.5625 -132.41902,110.5625 C -132.91412,110.5625 -133.65541,110.24054 -134.45027,108.96875 C -135.22803,107.72432 -135.82527,105.69249 -135.82527,103.40625 L -135.82527,-8.59375 L -135.82527,-10.1875 L -135.82527,-11.4375 L -137.07527,-11.4375 L -138.66902,-11.4375 C -140.90104,-11.4375 -143.18447,-12.862221 -145.10652,-15.9375 C -147.02081,-19.000364 -148.32527,-23.549729 -148.32527,-28.59375 L -148.32527,-124.59375 C -148.32527,-125.76969 -147.98631,-126.83609 -147.66902,-127.34375 C -147.31875,-127.90419 -147.24828,-127.75 -147.41902,-127.75 z "
       style="fill:url(#linearGradient56654);fill-opacity:1;stroke:url(#linearGradient56656);stroke-width:3.75;stroke-miterlimit:4;stroke-dasharray:none;stroke-opacity:1" />
    <path
       id="path2807"
       d="M -147.41902,-129 C -147.06709,-129 -146.59356,-128.77927 -146.10652,-128 C -145.61948,-127.22073 -145.26277,-125.98357 -145.26277,-124.59375 L -145.26277,-28.59375 C -145.26277,-26.669861 -144.78921,-24.892303 -143.91902,-23.5 C -143.04883,-22.107697 -141.63816,-21 -139.91902,-21 C -138.19988,-21 -136.78921,-22.107697 -135.91902,-23.5 C -135.04883,-24.892303 -134.57527,-26.669861 -134.57527,-28.59375 L -134.57527,-124.59375 C -134.57527,-125.98357 -134.21856,-127.22073 -133.73152,-128 C -133.24448,-128.77927 -132.77095,-129 -132.41902,-129 C -132.06709,-129 -131.59356,-128.77927 -131.10652,-128 C -130.61948,-127.22073 -130.26277,-125.98357 -130.26277,-124.59375 L -130.26277,-28.59375 C -130.26277,-26.669861 -129.78921,-24.892303 -128.91902,-23.5 C -128.04883,-22.107697 -126.63816,-21 -124.91902,-21 C -123.19988,-21 -121.78921,-22.107697 -120.91902,-23.5 C -120.04883,-24.892303 -119.57527,-26.669861 -119.57527,-28.59375 L -119.57527,-124.59375 C -119.57527,-125.98357 -119.21856,-127.22073 -118.73152,-128 C -118.24448,-128.77927 -117.77095,-129 -117.41902,-129 C -117.06709,-129 -116.59356,-128.77927 -116.10652,-128 C -115.61948,-127.22073 -115.26277,-125.98357 -115.26277,-124.59375 L -115.26277,-28.59375 C -115.26277,-23.337937 -116.59854,-18.594022 -118.66902,-15.28125 C -120.7395,-11.968478 -123.40085,-10.1875 -126.16902,-10.1875 L -127.76277,-10.1875 L -127.76277,-8.59375 L -127.76277,103.40625 C -127.76277,105.90064 -128.38582,108.12187 -129.32527,109.625 C -130.26472,111.12813 -131.37674,111.8125 -132.41902,111.8125 C -133.4613,111.8125 -134.57332,111.12813 -135.51277,109.625 C -136.45222,108.12187 -137.07527,105.90064 -137.07527,103.40625 L -137.07527,-8.59375 L -137.07527,-10.1875 L -138.66902,-10.1875 C -141.43719,-10.1875 -144.09854,-11.968478 -146.16902,-15.28125 C -148.2395,-18.594022 -149.57527,-23.337937 -149.57527,-28.59375 L -149.57527,-124.59375 C -149.57527,-125.98357 -149.21856,-127.22073 -148.73152,-128 C -148.24448,-128.77927 -147.77095,-129 -147.41902,-129 z "
       style="fill:url(#linearGradient56658);fill-opacity:1;stroke:none;stroke-width:2.5;stroke-miterlimit:4;stroke-dasharray:none;stroke-opacity:1" />
  </g>
  <g
     id="g55641"
     transform="matrix(1.005282,0,0,1.005282,-28.18857,-13.64161)">
    <path
       id="path52987"
       d="M 200.0625,-134.5 C 198.93153,-134.54078 197.80191,-134.46369 196.6875,-134.25 C 194.41963,-133.81513 192.332,-132.88117 190.4375,-131.625 C 186.69028,-129.14035 183.72007,-125.45866 181.09375,-120.65625 C 170.58148,-101.43382 163.74047,-61.762482 168.78125,20.90625 L 168.78125,20.9375 L 168.875,22.4375 L 169.28125,28.875 L 175.75,28.875 L 177.25,28.875 L 186.28125,28.875 L 186.28125,108.40625 C 186.28125,112.60178 187.29544,116.59146 189.40625,119.96875 C 191.58387,123.45295 195.60151,126.875 201,126.875 C 206.39849,126.875 210.38488,123.45295 212.5625,119.96875 C 214.67331,116.59145 215.71875,112.60178 215.71875,108.40625 L 215.71875,-115.59375 C 215.71875,-123.37973 211.79989,-131.67308 203.4375,-134 C 202.34433,-134.30419 201.19347,-134.45922 200.0625,-134.5 z "
       style="fill:black;fill-opacity:0.2;fill-rule:nonzero;stroke:none;stroke-width:13.75;stroke-miterlimit:4;stroke-dasharray:none;stroke-opacity:1" />
    <path
       style="fill:#333;fill-opacity:1;stroke:#333;stroke-width:13.75;stroke-miterlimit:4;stroke-dasharray:none;stroke-opacity:1"
       d="M 192.98723,-132.5 C 191.7452,-132.26184 190.47043,-131.72394 189.23723,-130.90625 C 186.77083,-129.27087 184.38385,-126.49757 182.11223,-122.34375 C 173.02575,-105.72847 165.63578,-66.626275 170.64348,15.5 L 170.73723,17 L 172.23723,17 L 188.14348,17 L 188.14348,103.40625 C 188.14348,106.43471 188.91463,109.19634 190.23723,111.3125 C 191.55983,113.42866 193.57773,115 195.98723,115 C 198.39673,115 200.41463,113.42866 201.73723,111.3125 C 203.05983,109.19634 203.83098,106.43471 203.83098,103.40625 L 203.83098,-120.59375 C 203.83098,-126.1208 201.10693,-131.11561 196.58098,-132.375 C 195.44949,-132.68985 194.22926,-132.73816 192.98723,-132.5 z "
       id="path34565" />
    <path
       id="path1918"
       d="M 192.98723,-132.5 C 191.7452,-132.26184 190.47043,-131.72394 189.23723,-130.90625 C 186.77083,-129.27087 184.38385,-126.49757 182.11223,-122.34375 C 173.02575,-105.72847 165.63578,-66.626275 170.64348,15.5 L 170.73723,17 L 172.23723,17 L 188.14348,17 L 188.14348,103.40625 C 188.14348,106.43471 188.91463,109.19634 190.23723,111.3125 C 191.55983,113.42866 193.57773,115 195.98723,115 C 198.39673,115 200.41463,113.42866 201.73723,111.3125 C 203.05983,109.19634 203.83098,106.43471 203.83098,103.40625 L 203.83098,-120.59375 C 203.83098,-126.1208 201.10693,-131.11561 196.58098,-132.375 C 195.44949,-132.68985 194.22926,-132.73816 192.98723,-132.5 z "
       style="fill:url(#linearGradient56660);fill-opacity:1;stroke:none;stroke-width:3.1622777;stroke-opacity:1" />
    <path
       id="path31938"
       d="M 193.54973,-129.40625 C 194.33407,-129.55871 195.04059,-129.49765 195.70598,-129.3125 C 198.36753,-128.57189 200.64348,-125.0667 200.64348,-120.59375 L 200.64348,103.40625 C 200.64348,105.90064 200.02043,108.12187 199.08098,109.625 C 198.14153,111.12813 197.02951,111.8125 195.98723,111.8125 C 194.94495,111.8125 193.83293,111.12813 192.89348,109.625 C 191.95403,108.12187 191.33098,105.90064 191.33098,103.40625 L 191.33098,15.40625 L 191.33098,13.8125 L 189.73723,13.8125 L 173.76848,13.8125 C 168.97208,-66.970064 176.50363,-105.55945 184.86223,-120.84375 C 186.96561,-124.68993 189.11769,-127.04163 190.98723,-128.28125 C 191.922,-128.90106 192.76539,-129.25379 193.54973,-129.40625 z "
       style="fill:url(#linearGradient56662);fill-opacity:1;stroke:none;stroke-width:3.1622777;stroke-opacity:1" />
  </g>
  <g
     id="g2800">
    <path
       id="circle52991"
       d="M 3.99447,-142.88583 C -65.190028,-142.88583 -121.40786,-86.667992 -121.40786,-17.483494 C -121.40786,51.701004 -65.190028,107.91884 3.99447,107.91884 C 73.178972,107.91884 129.3968,51.701004 129.3968,-17.483494 C 129.3968,-86.667992 73.178972,-142.88583 3.99447,-142.88583 z "
       style="fill:black;fill-opacity:0.2;fill-rule:nonzero;stroke:none;stroke-width:6.19834709;stroke-miterlimit:4;stroke-dasharray:none;stroke-opacity:1" />
    <circle
       transform="matrix(1.216391,0,0,1.216391,-1.03194,-22.5099)"
       style="fill:white;stroke:#333;stroke-width:6.19834709;stroke-miterlimit:4;stroke-dasharray:none;stroke-opacity:1"
       sodipodi:ry="100"
       sodipodi:rx="100"
       sodipodi:cy="0"
       sodipodi:cx="0"
       cy="0"
       cx="0"
       id="circle1912"
       r="100" />
    <circle
       transform="matrix(-0.383274,-1.430394,1.430394,-0.383274,-1.03194,-22.5099)"
       style="fill:none;stroke:url(#linearGradient56685);stroke-width:3.75657487;stroke-miterlimit:4;stroke-dasharray:none"
       sodipodi:ry="65"
       sodipodi:rx="65"
       sodipodi:cy="0"
       sodipodi:cx="0"
       cy="0"
       cx="0"
       id="circle1920"
       r="65" />
  </g>
</svg>
