<?xml version="1.0" encoding="UTF-8" standalone="no"?>
<!-- Created with Inkscape (http://www.inkscape.org/) -->
<svg
   xmlns:dc="http://purl.org/dc/elements/1.1/"
   xmlns:cc="http://web.resource.org/cc/"
   xmlns:rdf="http://www.w3.org/1999/02/22-rdf-syntax-ns#"
   xmlns:svg="http://www.w3.org/2000/svg"
   xmlns="http://www.w3.org/2000/svg"
   xmlns:xlink="http://www.w3.org/1999/xlink"
   xmlns:sodipodi="http://inkscape.sourceforge.net/DTD/sodipodi-0.dtd"
   xmlns:inkscape="http://www.inkscape.org/namespaces/inkscape"
   version="1.0"
   width="128"
   height="128"
   id="svg14662"
   sodipodi:version="0.32"
   inkscape:version="0.43"
   sodipodi:docname="Monobook icon.svg"
   sodipodi:docbase="D:\var\mediawiki\svg">
  <metadata
     id="metadata87">
    <rdf:RDF>
      <cc:Work
         rdf:about="">
        <dc:format>image/svg+xml</dc:format>
        <dc:type
           rdf:resource="http://purl.org/dc/dcmitype/StillImage" />
      </cc:Work>
    </rdf:RDF>
  </metadata>
  <sodipodi:namedview
     inkscape:window-height="649"
     inkscape:window-width="1122"
     inkscape:pageshadow="2"
     inkscape:pageopacity="0.0"
     borderopacity="1.0"
     bordercolor="#666666"
     pagecolor="#ffffff"
     id="base"
     inkscape:zoom="2.9375"
     inkscape:cx="64"
     inkscape:cy="64"
     inkscape:window-x="354"
     inkscape:window-y="48"
     inkscape:current-layer="svg14662" />
  <defs
     id="defs14664">
    <linearGradient
       id="linearGradient3261">
      <stop
         style="stop-color:#ffffff;stop-opacity:0"
         offset="0"
         id="stop3263" />
      <stop
         style="stop-color:#ffffff;stop-opacity:0"
         offset="0.5"
         id="stop3269" />
      <stop
         style="stop-color:#ffffff;stop-opacity:1"
         offset="1"
         id="stop3265" />
    </linearGradient>
    <linearGradient
       id="linearGradient3219">
      <stop
         style="stop-color:#0e7309;stop-opacity:1"
         offset="0"
         id="stop3221" />
      <stop
         style="stop-color:#70d13e;stop-opacity:1"
         offset="1"
         id="stop3223" />
    </linearGradient>
    <linearGradient
       id="linearGradient3205">
      <stop
         style="stop-color:#2c8300;stop-opacity:1"
         offset="0"
         id="stop3207" />
      <stop
         style="stop-color:#3db800;stop-opacity:1"
         offset="0.25"
         id="stop3215" />
      <stop
         style="stop-color:#ffffff;stop-opacity:1"
         offset="0.5"
         id="stop3213" />
      <stop
         style="stop-color:#69cf35;stop-opacity:1"
         offset="1"
         id="stop3209" />
    </linearGradient>
    <linearGradient
       id="linearGradient3197">
      <stop
         style="stop-color:#002f32;stop-opacity:1"
         offset="0"
         id="stop3199" />
      <stop
         style="stop-color:#045b04;stop-opacity:1"
         offset="1"
         id="stop3201" />
    </linearGradient>
    <linearGradient
       id="linearGradient3339">
      <stop
         style="stop-color:#e8e8e8;stop-opacity:1"
         offset="0"
         id="stop3341" />
      <stop
         style="stop-color:#ffffff;stop-opacity:1"
         offset="0.5"
         id="stop3347" />
      <stop
         style="stop-color:#e8e8e8;stop-opacity:1"
         offset="1"
         id="stop3343" />
    </linearGradient>
    <linearGradient
       id="linearGradient3327">
      <stop
         style="stop-color:#ffffff;stop-opacity:1"
         offset="0"
         id="stop3329" />
      <stop
         style="stop-color:#fdd99a;stop-opacity:1"
         offset="0.5"
         id="stop3335" />
      <stop
         style="stop-color:#c39539;stop-opacity:1"
         offset="1"
         id="stop3331" />
    </linearGradient>
    <linearGradient
       id="linearGradient3319">
      <stop
         style="stop-color:#7d491f;stop-opacity:1"
         offset="0"
         id="stop3321" />
      <stop
         style="stop-color:#926600;stop-opacity:1"
         offset="1"
         id="stop3323" />
    </linearGradient>
    <linearGradient
       id="linearGradient3282">
      <stop
         style="stop-color:#ffffff;stop-opacity:0"
         offset="0"
         id="stop3284" />
      <stop
         style="stop-color:#ffffff;stop-opacity:1"
         offset="1"
         id="stop3286" />
    </linearGradient>
    <linearGradient
       id="linearGradient14709">
      <stop
         style="stop-color:#ffffff;stop-opacity:1"
         offset="0"
         id="stop14711" />
      <stop
         style="stop-color:#5eb2ff;stop-opacity:1"
         offset="1"
         id="stop14713" />
    </linearGradient>
    <linearGradient
       id="linearGradient14685">
      <stop
         style="stop-color:#0917a0;stop-opacity:1"
         offset="0"
         id="stop14687" />
      <stop
         style="stop-color:#0345f4;stop-opacity:1"
         offset="1"
         id="stop14689" />
    </linearGradient>
    <linearGradient
       x1="96.125"
       y1="11.1875"
       x2="96.125"
       y2="52.101334"
       id="linearGradient14691"
       xlink:href="#linearGradient14685"
       gradientUnits="userSpaceOnUse" />
    <radialGradient
       cx="546.31165"
       cy="705.48486"
       r="25.28125"
       fx="546.31165"
       fy="705.48486"
       id="radialGradient14715"
       xlink:href="#linearGradient14709"
       gradientUnits="userSpaceOnUse"
       gradientTransform="matrix(2.032821,0,-3.289062e-8,1.717338,-565.7183,-518.4991)" />
    <linearGradient
       x1="96.381813"
       y1="30.666691"
       x2="96.381813"
       y2="13.187494"
       id="linearGradient3302"
       xlink:href="#linearGradient3282"
       gradientUnits="userSpaceOnUse"
       gradientTransform="matrix(0.934851,0,0,0.934851,453.691,638.9931)" />
    <linearGradient
       x1="41.945538"
       y1="46.665127"
       x2="41.945538"
       y2="82.333244"
       id="linearGradient3325"
       xlink:href="#linearGradient3319"
       gradientUnits="userSpaceOnUse" />
    <radialGradient
       cx="53.60223"
       cy="59.728882"
       r="17.834057"
       fx="53.60223"
       fy="59.728882"
       id="radialGradient3333"
       xlink:href="#linearGradient3327"
       gradientUnits="userSpaceOnUse"
       gradientTransform="matrix(0,1.655849,-1.639188,0,152.1501,-32.92373)" />
    <linearGradient
       x1="28.429483"
       y1="61.798298"
       x2="58.95916"
       y2="61.798298"
       id="linearGradient3345"
       xlink:href="#linearGradient3339"
       gradientUnits="userSpaceOnUse" />
    <linearGradient
       x1="83.28125"
       y1="123.09795"
       x2="83.28125"
       y2="66.310989"
       id="linearGradient3203"
       xlink:href="#linearGradient3197"
       gradientUnits="userSpaceOnUse" />
    <radialGradient
       cx="491.52231"
       cy="670.92523"
       r="36.426601"
       fx="491.52231"
       fy="670.92523"
       id="radialGradient3211"
       xlink:href="#linearGradient3205"
       gradientUnits="userSpaceOnUse"
       gradientTransform="matrix(0,2.023783,-1.958054,0,1805.23,-312.4948)" />
    <linearGradient
       x1="517.02167"
       y1="705.48438"
       x2="517.02167"
       y2="745.30084"
       id="linearGradient3240"
       xlink:href="#linearGradient3219"
       gradientUnits="userSpaceOnUse"
       gradientTransform="matrix(-1,0,0,1,983.3261,0)" />
    <linearGradient
       x1="517.02167"
       y1="705.48438"
       x2="517.02167"
       y2="745.30084"
       id="linearGradient3243"
       xlink:href="#linearGradient3219"
       gradientUnits="userSpaceOnUse"
       gradientTransform="translate(-0.120047,0)" />
    <radialGradient
       cx="479.68311"
       cy="709.6579"
       r="5.0058851"
       fx="479.68311"
       fy="709.6579"
       id="radialGradient3267"
       xlink:href="#linearGradient3261"
       gradientUnits="userSpaceOnUse"
       gradientTransform="matrix(1.233976,-0.151603,0.190797,1.552993,-247.6349,-320.152)" />
    <linearGradient
       gradientTransform="matrix(1.125651,0,0,1.125651,-477.8318,-158.0894)"
       y2="177.4375"
       x2="501.42935"
       y1="243.7218"
       x1="501.42935"
       gradientUnits="userSpaceOnUse"
       id="linearGradient2303"
       xlink:href="#linearGradient8091"
       inkscape:collect="always" />
    <linearGradient
       gradientTransform="matrix(1.125651,0,0,1.125651,-477.8318,-158.0894)"
       y2="177.4375"
       x2="431.2106"
       y1="243.7218"
       x1="431.2106"
       gradientUnits="userSpaceOnUse"
       id="linearGradient2301"
       xlink:href="#linearGradient3234"
       inkscape:collect="always" />
    <linearGradient
       gradientTransform="matrix(1.125651,0,0,1.125651,-477.8318,-158.0894)"
       y2="177.4375"
       x2="501.42935"
       y1="243.7218"
       x1="501.42935"
       gradientUnits="userSpaceOnUse"
       id="linearGradient2298"
       xlink:href="#linearGradient8091"
       inkscape:collect="always" />
    <linearGradient
       gradientTransform="matrix(1.125651,0,0,1.125651,-477.8318,-158.0894)"
       y2="211.24593"
       x2="456.39401"
       y1="208.11548"
       x1="480.27173"
       gradientUnits="userSpaceOnUse"
       id="linearGradient2296"
       xlink:href="#linearGradient9070"
       inkscape:collect="always" />
    <linearGradient
       gradientTransform="matrix(1.125651,0,0,1.125651,-477.8318,-158.0894)"
       y2="218.45189"
       x2="442.96814"
       y1="161.51843"
       x1="459.44681"
       gradientUnits="userSpaceOnUse"
       id="linearGradient2292"
       xlink:href="#linearGradient3226"
       inkscape:collect="always" />
    <linearGradient
       gradientTransform="matrix(1.125651,0,0,1.125651,-477.8318,-158.0894)"
       y2="177.4375"
       x2="501.42935"
       y1="243.7218"
       x1="501.42935"
       gradientUnits="userSpaceOnUse"
       id="linearGradient2286"
       xlink:href="#linearGradient8091"
       inkscape:collect="always" />
    <linearGradient
       gradientTransform="translate(-382.8941,-166.5597)"
       y2="177.4375"
       x2="501.42935"
       y1="243.7218"
       x1="501.42935"
       gradientUnits="userSpaceOnUse"
       id="linearGradient2270"
       xlink:href="#linearGradient8091"
       inkscape:collect="always" />
    <linearGradient
       gradientTransform="translate(-382.8941,-166.5597)"
       y2="177.4375"
       x2="431.2106"
       y1="243.7218"
       x1="431.2106"
       gradientUnits="userSpaceOnUse"
       id="linearGradient2268"
       xlink:href="#linearGradient3234"
       inkscape:collect="always" />
    <linearGradient
       gradientTransform="translate(-382.8941,-166.5597)"
       y2="177.4375"
       x2="501.42935"
       y1="243.7218"
       x1="501.42935"
       gradientUnits="userSpaceOnUse"
       id="linearGradient2265"
       xlink:href="#linearGradient8091"
       inkscape:collect="always" />
    <linearGradient
       gradientTransform="translate(-382.8941,-166.5597)"
       y2="211.24593"
       x2="456.39401"
       y1="208.11548"
       x1="480.27173"
       gradientUnits="userSpaceOnUse"
       id="linearGradient2263"
       xlink:href="#linearGradient9070"
       inkscape:collect="always" />
    <linearGradient
       gradientTransform="translate(-382.8941,-166.5597)"
       y2="218.45189"
       x2="442.96814"
       y1="161.51843"
       x1="459.44681"
       gradientUnits="userSpaceOnUse"
       id="linearGradient2259"
       xlink:href="#linearGradient3226"
       inkscape:collect="always" />
    <linearGradient
       gradientTransform="translate(-382.8941,-166.5597)"
       y2="177.4375"
       x2="501.42935"
       y1="243.7218"
       x1="501.42935"
       gradientUnits="userSpaceOnUse"
       id="linearGradient2253"
       xlink:href="#linearGradient8091"
       inkscape:collect="always" />
    <linearGradient
       gradientUnits="userSpaceOnUse"
       xlink:href="#linearGradient8091"
       id="linearGradient4393"
       y2="177.4375"
       x2="501.42935"
       y1="243.7218"
       x1="501.42935" />
    <linearGradient
       gradientUnits="userSpaceOnUse"
       xlink:href="#linearGradient3226"
       id="linearGradient4391"
       y2="218.45189"
       x2="442.96814"
       y1="161.51843"
       x1="459.44681" />
    <linearGradient
       gradientUnits="userSpaceOnUse"
       xlink:href="#linearGradient8091"
       id="linearGradient4389"
       y2="177.4375"
       x2="501.42935"
       y1="243.7218"
       x1="501.42935" />
    <linearGradient
       gradientUnits="userSpaceOnUse"
       xlink:href="#linearGradient9070"
       id="linearGradient4387"
       y2="211.24593"
       x2="456.39401"
       y1="208.11548"
       x1="480.27173" />
    <linearGradient
       gradientUnits="userSpaceOnUse"
       xlink:href="#linearGradient8091"
       id="linearGradient4385"
       y2="177.4375"
       x2="501.42935"
       y1="243.7218"
       x1="501.42935" />
    <linearGradient
       gradientUnits="userSpaceOnUse"
       xlink:href="#linearGradient3234"
       id="linearGradient4383"
       y2="177.4375"
       x2="431.2106"
       y1="243.7218"
       x1="431.2106" />
    <filter
       id="filter4341">
      <feGaussianBlur
         inkscape:collect="always"
         stdDeviation="0.33625764"
         id="feGaussianBlur4343" />
    </filter>
    <linearGradient
       gradientUnits="userSpaceOnUse"
       xlink:href="#linearGradient8091"
       id="linearGradient15009"
       y2="177.4375"
       x2="501.42935"
       y1="243.7218"
       x1="501.42935" />
    <linearGradient
       gradientUnits="userSpaceOnUse"
       xlink:href="#linearGradient3226"
       id="linearGradient15007"
       y2="218.45189"
       x2="442.96814"
       y1="161.51843"
       x1="459.44681" />
    <linearGradient
       gradientUnits="userSpaceOnUse"
       xlink:href="#linearGradient8091"
       id="linearGradient15005"
       y2="177.4375"
       x2="501.42935"
       y1="243.7218"
       x1="501.42935" />
    <linearGradient
       gradientUnits="userSpaceOnUse"
       xlink:href="#linearGradient9070"
       id="linearGradient15003"
       y2="211.24593"
       x2="456.39401"
       y1="208.11548"
       x1="480.27173" />
    <linearGradient
       gradientUnits="userSpaceOnUse"
       xlink:href="#linearGradient8091"
       id="linearGradient15001"
       y2="177.4375"
       x2="501.42935"
       y1="243.7218"
       x1="501.42935" />
    <linearGradient
       gradientUnits="userSpaceOnUse"
       xlink:href="#linearGradient3234"
       id="linearGradient14999"
       y2="177.4375"
       x2="431.2106"
       y1="243.7218"
       x1="431.2106" />
    <linearGradient
       gradientUnits="userSpaceOnUse"
       xlink:href="#linearGradient8091"
       id="linearGradient14963"
       y2="177.4375"
       x2="501.42935"
       y1="243.7218"
       x1="501.42935" />
    <linearGradient
       gradientUnits="userSpaceOnUse"
       xlink:href="#linearGradient3226"
       id="linearGradient14961"
       y2="218.45189"
       x2="442.96814"
       y1="161.51843"
       x1="459.44681" />
    <linearGradient
       gradientUnits="userSpaceOnUse"
       xlink:href="#linearGradient8091"
       id="linearGradient14959"
       y2="177.4375"
       x2="501.42935"
       y1="243.7218"
       x1="501.42935" />
    <linearGradient
       gradientUnits="userSpaceOnUse"
       xlink:href="#linearGradient9070"
       id="linearGradient14957"
       y2="211.24593"
       x2="456.39401"
       y1="208.11548"
       x1="480.27173" />
    <linearGradient
       gradientUnits="userSpaceOnUse"
       xlink:href="#linearGradient8091"
       id="linearGradient14955"
       y2="177.4375"
       x2="501.42935"
       y1="243.7218"
       x1="501.42935" />
    <linearGradient
       gradientUnits="userSpaceOnUse"
       xlink:href="#linearGradient3234"
       id="linearGradient14953"
       y2="177.4375"
       x2="431.2106"
       y1="243.7218"
       x1="431.2106" />
    <linearGradient
       gradientUnits="userSpaceOnUse"
       xlink:href="#linearGradient8091"
       id="linearGradient14951"
       y2="177.4375"
       x2="501.42935"
       y1="243.7218"
       x1="501.42935" />
    <linearGradient
       gradientUnits="userSpaceOnUse"
       xlink:href="#linearGradient3226"
       id="linearGradient14949"
       y2="218.45189"
       x2="442.96814"
       y1="161.51843"
       x1="459.44681" />
    <linearGradient
       gradientUnits="userSpaceOnUse"
       xlink:href="#linearGradient8091"
       id="linearGradient14947"
       y2="177.4375"
       x2="501.42935"
       y1="243.7218"
       x1="501.42935" />
    <linearGradient
       gradientUnits="userSpaceOnUse"
       xlink:href="#linearGradient9070"
       id="linearGradient14945"
       y2="211.24593"
       x2="456.39401"
       y1="208.11548"
       x1="480.27173" />
    <linearGradient
       gradientUnits="userSpaceOnUse"
       xlink:href="#linearGradient8091"
       id="linearGradient14943"
       y2="177.4375"
       x2="501.42935"
       y1="243.7218"
       x1="501.42935" />
    <linearGradient
       gradientUnits="userSpaceOnUse"
       xlink:href="#linearGradient3234"
       id="linearGradient14941"
       y2="177.4375"
       x2="431.2106"
       y1="243.7218"
       x1="431.2106" />
    <linearGradient
       gradientUnits="userSpaceOnUse"
       xlink:href="#linearGradient9070"
       id="linearGradient9076"
       y2="211.24593"
       x2="456.39401"
       y1="208.11548"
       x1="480.27173" />
    <linearGradient
       gradientUnits="userSpaceOnUse"
       xlink:href="#linearGradient8091"
       id="linearGradient8097"
       y2="177.4375"
       x2="501.42935"
       y1="243.7218"
       x1="501.42935" />
    <linearGradient
       gradientUnits="userSpaceOnUse"
       xlink:href="#linearGradient3234"
       id="linearGradient1496"
       y2="177.4375"
       x2="431.2106"
       y1="243.7218"
       x1="431.2106" />
    <linearGradient
       gradientUnits="userSpaceOnUse"
       xlink:href="#linearGradient3226"
       id="linearGradient3232"
       y2="218.45189"
       x2="442.96814"
       y1="161.51843"
       x1="459.44681" />
    <linearGradient
       id="linearGradient3226">
      <stop
         id="stop3228"
         offset="0"
         style="stop-color:#ffffff;stop-opacity:1" />
      <stop
         id="stop3230"
         offset="1"
         style="stop-color:#d8d8e5;stop-opacity:1" />
    </linearGradient>
    <linearGradient
       id="linearGradient3234">
      <stop
         id="stop3236"
         offset="0"
         style="stop-color:#bdbdcb;stop-opacity:1" />
      <stop
         id="stop3238"
         offset="1"
         style="stop-color:#b3b3c9;stop-opacity:1" />
    </linearGradient>
    <linearGradient
       id="linearGradient8091">
      <stop
         id="stop8093"
         offset="0"
         style="stop-color:#5b5b5a;stop-opacity:1" />
      <stop
         id="stop8095"
         offset="1"
         style="stop-color:#9191a7;stop-opacity:1" />
    </linearGradient>
    <linearGradient
       id="linearGradient9070">
      <stop
         id="stop9072"
         offset="0"
         style="stop-color:#dadae4;stop-opacity:1" />
      <stop
         id="stop9074"
         offset="1"
         style="stop-color:#a0a0b7;stop-opacity:1" />
    </linearGradient>
  </defs>
  <g
     id="g1542"
     transform="translate(4.890766,-0.44216)">
    <path
       id="path2401"
       style="opacity:0.6;color:#000000;fill:#000000;fill-opacity:1;fill-rule:evenodd;stroke:none;stroke-width:1.5;stroke-linecap:butt;stroke-linejoin:miter;marker:none;marker-start:none;marker-mid:none;marker-end:none;stroke-miterlimit:4;stroke-dasharray:none;stroke-dashoffset:0;stroke-opacity:1;visibility:visible;display:inline;overflow:visible"
       d="M 81.4146,13.6547 L 77.6021,20.62345 L 74.07085,21.99845 L 67.63335,16.06095 C 63.70534,17.56174 58.53959,22.37345 58.5396,22.37345 C 55.63542,24.89883 54.88335,27.31095 54.88335,27.31095 L 58.1646,32.7172 L 51.7271,32.5922 C 51.7271,32.5922 50.59117,32.86916 48.57085,36.4047 C 46.55055,39.94023 46.53961,47.99845 46.5396,47.99845 L 54.38335,51.0297 C 54.63589,52.41866 55.00834,53.56095 55.00835,53.56095 L 50.3521,61.0297 L 58.7896,70.12345 L 64.9771,66.9672 L 69.4146,69.9672 L 70.0396,77.43595 C 75.09036,79.07745 81.53961,78.93594 81.5396,78.93595 C 84.06498,76.41057 86.44586,72.62346 86.44585,72.62345 C 87.96107,72.37091 89.4771,71.87345 89.4771,71.87345 L 95.6646,77.43595 C 103.99836,72.63773 107.66461,66.06094 107.6646,66.06095 L 104.13335,60.12345 L 111.07085,60.24845 L 114.8521,53.56095 L 115.75835,44.9672 L 108.4146,41.81095 L 107.5396,37.6547 L 112.3521,32.0922 L 105.00835,23.37345 L 97.57085,26.4047 L 93.38335,23.6547 L 93.25835,16.18595 L 81.4146,13.6547 z M 78.0396,37.5297 C 80.55206,37.33913 83.51518,38.21006 86.13335,40.12345 C 90.78785,43.52502 92.6248,48.96758 90.2271,52.24845 C 87.82939,55.52933 82.10037,55.43128 77.44585,52.0297 C 72.79134,48.62812 70.9544,43.18557 73.3521,39.9047 C 74.4011,38.46932 76.08546,37.67792 78.0396,37.5297 z " />
    <path
       id="path2221"
       style="color:#000000;fill:url(#linearGradient2268);fill-opacity:1;fill-rule:evenodd;stroke:url(#linearGradient2270);stroke-width:1.5;stroke-linecap:butt;stroke-linejoin:miter;marker:none;marker-start:none;marker-mid:none;marker-end:none;stroke-miterlimit:4;stroke-dasharray:none;stroke-dashoffset:0;stroke-opacity:1;visibility:visible;display:inline;overflow:visible"
       d="M 83.69148,11.37782 L 79.87898,18.34657 L 76.34773,19.72157 L 69.91023,13.78407 C 65.98222,15.28486 60.81647,20.09657 60.81648,20.09657 C 57.9123,22.62195 57.16023,25.03407 57.16023,25.03407 L 60.44148,30.44032 L 54.00398,30.31532 C 54.00398,30.31532 52.86805,30.59228 50.84773,34.12782 C 48.82743,37.66335 48.81649,45.72157 48.81648,45.72157 L 56.66023,48.75282 C 56.91277,50.14178 57.28522,51.28407 57.28523,51.28407 L 52.62898,58.75282 L 61.06648,67.84657 L 67.25398,64.69032 L 71.69148,67.69032 L 72.31648,75.15907 C 77.36724,76.80057 83.81649,76.65906 83.81648,76.65907 C 86.34186,74.13369 88.72274,70.34658 88.72273,70.34657 C 90.23795,70.09403 91.75398,69.59657 91.75398,69.59657 L 97.94148,75.15907 C 106.27524,70.36085 109.94149,63.78406 109.94148,63.78407 L 106.41023,57.84657 L 113.34773,57.97157 L 117.12898,51.28407 L 118.03523,42.69032 L 110.69148,39.53407 L 109.81648,35.37782 L 114.62898,29.81532 L 107.28523,21.09657 L 99.84773,24.12782 L 95.66023,21.37782 L 95.53523,13.90907 L 83.69148,11.37782 z M 80.31648,35.25282 C 82.82894,35.06225 85.79206,35.93318 88.41023,37.84657 C 93.06473,41.24814 94.90168,46.6907 92.50398,49.97157 C 90.10627,53.25245 84.37725,53.1544 79.72273,49.75282 C 75.06822,46.35124 73.23128,40.90869 75.62898,37.62782 C 76.67798,36.19244 78.36234,35.40104 80.31648,35.25282 z " />
    <path
       id="path8099"
       style="color:#000000;fill:url(#linearGradient2263);fill-opacity:1;fill-rule:evenodd;stroke:url(#linearGradient2265);stroke-width:1px;stroke-linecap:butt;stroke-linejoin:miter;marker:none;marker-start:none;marker-mid:none;marker-end:none;stroke-miterlimit:4;stroke-dasharray:none;stroke-dashoffset:0;stroke-opacity:1;visibility:visible;display:inline;overflow:visible"
       d="M 67.76892,28.33841 L 67.26893,47.88325 C 67.52147,49.27221 67.89392,50.4145 67.89393,50.4145 L 77.86268,57.24893 L 103.95643,55.22584 L 101.30018,43.36016 L 95.66023,25.55173 C 95.66023,25.55173 67.76892,28.33841 67.76892,28.33841 z M 80.31648,35.25282 C 82.82894,35.06225 85.79206,35.93318 88.41023,37.84657 C 93.06473,41.24814 94.90168,46.6907 92.50398,49.97157 C 90.10627,53.25245 84.37725,53.1544 79.72273,49.75282 C 75.06822,46.35124 73.23128,40.90869 75.62898,37.62782 C 76.67798,36.19244 78.36234,35.40104 80.31648,35.25282 z " />
    <path
       id="path11989"
       style="color:#000000;fill:#c5c5d5;fill-opacity:1;fill-rule:evenodd;stroke:none;stroke-width:1px;stroke-linecap:butt;stroke-linejoin:miter;marker:none;marker-start:none;marker-mid:none;marker-end:none;stroke-miterlimit:4;stroke-dasharray:none;stroke-dashoffset:0;stroke-opacity:1;visibility:visible;display:inline;overflow:visible"
       d="M 78.2513,58.63562 C 78.2513,58.63562 71.86508,68.11195 71.86508,68.11195 C 71.86508,68.11195 72.8678,75.05028 72.8678,75.05028 C 74.79416,76.61611 80.72827,76.37771 80.72827,76.37771 C 80.72827,76.37771 83.13621,76.67253 83.13621,76.67253 L 85.31648,69.34657 L 78.2513,58.63562 z " />
    <path
       id="path2223"
       style="color:#000000;fill:url(#linearGradient2259);fill-opacity:1;fill-rule:evenodd;stroke:none;stroke-width:1px;stroke-linecap:butt;stroke-linejoin:miter;marker:none;marker-start:none;marker-mid:none;marker-end:none;stroke-miterlimit:4;stroke-dasharray:none;stroke-dashoffset:0;stroke-opacity:1;visibility:visible;display:inline;overflow:visible"
       d="M 84.17794,12.96637 C 84.17794,12.96637 81.34696,18.20799 81.04357,19.35491 C 78.39192,19.78893 75.78522,20.90908 75.78523,20.90907 L 69.47273,15.00282 C 67.11856,16.31762 64.7644,17.94276 62.41023,20.22157 L 65.94148,27.28407 C 63.7949,28.60989 62.91023,31.65907 62.91023,31.65907 L 54.87898,31.47157 L 53.44148,40.37782 L 61.44148,42.62782 C 61.50461,45.02693 63.41024,48.44031 63.41023,48.44032 L 57.91023,53.69032 L 63.78523,60.31532 L 70.28523,57.59657 C 72.17927,59.36434 76.53523,61.31531 76.53523,61.31532 L 76.34773,68.22157 L 85.31648,69.34657 L 88.28523,62.90907 C 91.12629,63.09848 94.22273,62.34657 94.22273,62.34657 L 99.00398,67.75282 L 107.72273,62.03407 L 104.50398,56.34657 C 106.01921,54.32627 107.41022,51.47157 107.41023,51.47157 L 115.44148,51.72157 L 116.25398,43.28407 L 109.44148,40.94032 C 109.31521,38.1624 107.84774,34.94032 107.84773,34.94032 L 112.97273,29.69032 L 107.22273,22.37782 L 99.78523,25.16909 C 98.52981,23.82681 96.41353,22.69998 94.16023,21.69032 L 93.97273,14.94032 L 84.17794,12.96637 z M 82.5624,30.12646 C 87.28769,29.83642 92.23716,32.00255 94.83686,36.79222 C 98.30313,43.17844 96.68022,50.19782 90.87898,53.34657 C 85.07774,56.49532 77.56399,53.88904 74.09773,47.50282 C 70.63148,41.1166 72.51524,34.4138 78.31648,31.26505 C 79.76679,30.47786 80.9873,30.22314 82.5624,30.12646 z " />
    <path
       id="path11985"
       style="color:#000000;fill:#a9a9bc;fill-opacity:1;fill-rule:evenodd;stroke:none;stroke-width:1px;stroke-linecap:butt;stroke-linejoin:miter;marker:none;marker-start:none;marker-mid:none;marker-end:none;stroke-miterlimit:4;stroke-dasharray:none;stroke-dashoffset:0;stroke-opacity:1;visibility:visible;display:inline;overflow:visible"
       d="M 54.87898,31.47157 L 53.44148,40.37782 C 50.96977,43.16092 49.57441,45.21635 49.57441,45.21635 C 49.57441,45.21635 48.26139,36.87201 53.59051,30.74751 C 53.59051,30.74751 54.87898,31.47157 54.87898,31.47157 z " />
    <path
       id="path11987"
       style="color:#000000;fill:#b5b5c5;fill-opacity:1;fill-rule:evenodd;stroke:none;stroke-width:1px;stroke-linecap:butt;stroke-linejoin:miter;marker:none;marker-start:none;marker-mid:none;marker-end:none;stroke-miterlimit:4;stroke-dasharray:none;stroke-dashoffset:0;stroke-opacity:1;visibility:visible;display:inline;overflow:visible"
       d="M 94.22273,62.34657 L 99.00398,67.75282 C 99.00398,67.75282 97.88489,75.28725 97.88489,75.28725 C 97.88489,75.28725 91.68756,69.31576 91.68756,69.31576 C 91.68756,69.31576 94.22273,62.34657 94.22273,62.34657 z " />
    <path
       id="path11993"
       style="color:#000000;fill:#c5c5d5;fill-opacity:1;fill-rule:evenodd;stroke:none;stroke-width:1px;stroke-linecap:butt;stroke-linejoin:miter;marker:none;marker-start:none;marker-mid:none;marker-end:none;stroke-miterlimit:4;stroke-dasharray:none;stroke-dashoffset:0;stroke-opacity:1;visibility:visible;display:inline;overflow:visible"
       d="M 63.78523,60.31532 C 63.78523,60.31532 60.99124,67.47735 60.99124,67.47735 C 60.99124,67.47735 67.09097,64.4379 67.09097,64.4379 C 67.09097,64.4379 70.28523,57.59657 70.28523,57.59657 L 63.78523,60.31532 z " />
    <path
       id="path12964"
       style="color:#000000;fill:none;fill-opacity:1;fill-rule:evenodd;stroke:url(#linearGradient2253);stroke-width:1.5;stroke-linecap:butt;stroke-linejoin:miter;marker:none;marker-start:none;marker-mid:none;marker-end:none;stroke-miterlimit:4;stroke-dasharray:none;stroke-dashoffset:0;stroke-opacity:1;visibility:visible;display:inline;overflow:visible"
       d="M 83.69148,11.37782 L 79.87898,18.34657 L 76.34773,19.72157 L 69.91023,13.78407 C 65.98222,15.28486 60.81647,20.09657 60.81648,20.09657 C 57.9123,22.62195 57.16023,25.03407 57.16023,25.03407 L 60.44148,30.44032 L 54.00398,30.31532 C 54.00398,30.31532 52.86805,30.59228 50.84773,34.12782 C 48.82743,37.66335 48.81649,45.72157 48.81648,45.72157 L 56.66023,48.75282 C 56.91277,50.14178 57.28522,51.28407 57.28523,51.28407 L 52.62898,58.75282 L 61.06648,67.84657 L 67.25398,64.69032 L 71.69148,67.69032 L 72.31648,75.15907 C 77.36724,76.80057 83.81649,76.65906 83.81648,76.65907 C 86.34186,74.13369 88.72274,70.34658 88.72273,70.34657 C 90.23795,70.09403 91.75398,69.59657 91.75398,69.59657 L 97.94148,75.15907 C 106.27524,70.36085 109.94149,63.78406 109.94148,63.78407 L 106.41023,57.84657 L 113.34773,57.97157 L 117.12898,51.28407 L 118.03523,42.69032 L 110.69148,39.53407 L 109.81648,35.37782 L 114.62898,29.81532 L 107.28523,21.09657 L 99.84773,24.12782 L 95.66023,21.37782 L 95.53523,13.90907 L 83.69148,11.37782 z M 80.31648,35.25282 C 82.82894,35.06225 85.79206,35.93318 88.41023,37.84657 C 93.06473,41.24814 94.90168,46.6907 92.50398,49.97157 C 90.10627,53.25245 84.37725,53.1544 79.72273,49.75282 C 75.06822,46.35124 73.23128,40.90869 75.62898,37.62782 C 76.67798,36.19244 78.36234,35.40104 80.31648,35.25282 z " />
  </g>
  <g
     transform="translate(-447.4286,-654.9336)"
     id="user">
    <path
       d="M 492.35552,660.38391 C 477.63883,660.38391 465.66054,672.3622 465.66054,687.07889 C 465.66054,701.79558 477.63883,713.77387 492.35552,713.77387 C 507.0722,713.77387 519.05049,701.79558 519.05049,687.07889 C 519.05049,672.3622 507.0722,660.38391 492.35552,660.38391 z "
       style="opacity:0.5;fill:#000000;fill-opacity:1;stroke:none;stroke-width:1.33686185;stroke-linecap:square;stroke-linejoin:miter;stroke-miterlimit:4;stroke-dasharray:none;stroke-dashoffset:0;stroke-opacity:1"
       id="path3281" />
    <path
       d="M 492.27231,697.65234 C 470.63786,697.65234 453.08481,714.99981 453.08481,736.40234 L 453.08481,742.52734 C 453.08481,748.58021 459.36017,761.27734 481.99106,761.27734 L 502.52231,761.27734 C 525.15269,761.27734 531.45981,749.1977 531.45981,742.52734 L 531.45981,736.40234 C 531.45981,714.9998 513.90676,697.65234 492.27231,697.65234 z "
       style="opacity:0.5;fill:#000000;fill-opacity:1;stroke:none;stroke-width:1.5;stroke-linecap:square;stroke-linejoin:miter;stroke-miterlimit:4;stroke-dashoffset:0;stroke-opacity:1"
       id="path3283" />
    <path
       d="M 44.09375,59.46875 C 22.459298,59.46875 4.9062499,76.816217 4.90625,98.21875 L 4.90625,104.34375 C 4.90625,110.39662 11.181609,123.09375 33.8125,123.09375 L 54.34375,123.09375 C 76.97413,123.09375 83.281253,111.01411 83.28125,104.34375 L 83.28125,98.21875 C 83.28125,76.816214 65.728203,59.468751 44.09375,59.46875 z "
       transform="translate(447.4286,636.9336)"
       style="fill:url(#linearGradient3203);fill-opacity:1;stroke:none;stroke-width:1.5;stroke-linecap:square;stroke-linejoin:miter;stroke-miterlimit:4;stroke-dashoffset:0;stroke-opacity:1"
       id="path2214" />
    <path
       d="M 491.52231,698.56305 C 471.41209,698.56305 455.09571,714.47045 455.09571,734.09627 L 455.09571,739.71282 C 455.09571,745.26321 460.92895,756.90632 481.96541,756.90632 L 501.05016,756.90632 C 522.08615,756.90632 527.94891,745.82945 527.94891,739.71282 L 527.94891,734.09627 C 527.94891,714.47045 511.63253,698.56305 491.52231,698.56305 z "
       style="fill:url(#radialGradient3211);fill-opacity:1;stroke:none;stroke-width:1.5;stroke-linecap:square;stroke-linejoin:miter;stroke-miterlimit:4;stroke-dashoffset:0;stroke-opacity:1"
       id="path3193" />
    <path
       d="M 509.00874,705.87423 C 517.47238,714.93633 523.92402,729.97174 525.81425,744.5269"
       style="fill:#000000;fill-opacity:0;fill-rule:evenodd;stroke:url(#linearGradient3243);stroke-width:1.5;stroke-linecap:butt;stroke-linejoin:miter;stroke-miterlimit:4;stroke-dasharray:none;stroke-opacity:1"
       id="path3217" />
    <path
       d="M 474.19733,705.87423 C 465.73369,714.93633 459.28205,729.97174 457.39182,744.5269"
       style="fill:#000000;fill-opacity:0;fill-rule:evenodd;stroke:url(#linearGradient3240);stroke-width:1.5;stroke-linecap:butt;stroke-linejoin:miter;stroke-miterlimit:4;stroke-dasharray:none;stroke-opacity:1"
       id="path3227" />
    <path
       d="M 484.83052,710.07561 C 482.52782,712.04979 479.86829,713.60631 481.1093,718.35832 C 475.44857,717.2117 471.15959,709.46821 474.74722,703.9536 L 484.83052,710.07561 z "
       style="fill:#c5ffbd;fill-opacity:1;fill-rule:evenodd;stroke:#52aa5d;stroke-width:1px;stroke-linecap:butt;stroke-linejoin:miter;stroke-opacity:1"
       id="path3249" />
    <path
       d="M -36.972118,84.910487 L -42.381886,75.540496 L -31.562351,75.540495 L -36.972118,84.910487 z "
       transform="matrix(1.168871,0,0,1.168871,534.8187,623.4459)"
       style="opacity:1;fill:#ff2600;fill-opacity:1;stroke:#800000;stroke-width:0.85552669;stroke-linecap:square;stroke-linejoin:miter;stroke-miterlimit:4;stroke-dasharray:none;stroke-dashoffset:0;stroke-opacity:1"
       id="path3245" />
    <path
       d="M 497.96513,710.07561 C 500.74799,711.56963 504.00771,713.48627 502.7667,718.23828 C 507.7072,716.13135 511.63606,709.46821 508.04843,703.9536 L 497.96513,710.07561 z "
       style="fill:#a0ff74;fill-opacity:1;fill-rule:evenodd;stroke:#5eaa5e;stroke-width:1px;stroke-linecap:butt;stroke-linejoin:miter;stroke-opacity:1"
       id="path3247" />
    <path
       d="M 474.96875,704.65625 L 483.96875,710.125 C 482.98059,710.93983 481.95513,711.77074 481.21875,712.90625 C 480.46947,714.06165 480.23534,715.64781 480.5625,717.625 C 478.19333,716.89647 476.06898,714.98032 474.90625,712.5625 C 473.70299,710.0604 473.55794,707.15938 474.96875,704.65625 z "
       style="fill:url(#radialGradient3267);fill-opacity:1;fill-rule:evenodd;stroke:none;stroke-width:1px;stroke-linecap:butt;stroke-linejoin:miter;stroke-opacity:1"
       id="path3251" />
    <path
       d="M 76.945221,64.499184 C 76.94751,73.981116 69.261527,81.668954 59.779595,81.668954 C 50.297662,81.668954 42.611679,73.981116 42.613968,64.499184 C 42.611679,55.017252 50.297662,47.329414 59.779595,47.329414 C 69.261527,47.329414 76.94751,55.017252 76.945221,64.499184 z "
       transform="matrix(1.496041,0,0,1.496041,402.1703,589.3342)"
       style="opacity:1;fill:url(#radialGradient3333);fill-opacity:1;stroke:url(#linearGradient3325);stroke-width:1.33686185;stroke-linecap:square;stroke-linejoin:miter;stroke-miterlimit:4;stroke-dasharray:none;stroke-dashoffset:0;stroke-opacity:1"
       id="path2309" />
  </g>
  <g
     transform="matrix(-0.349956,0,0,0.198131,219.8863,41.69289)"
     id="book">
    <path
       style="fill:#001873;fill-opacity:1;fill-rule:evenodd;stroke:#fefefe;stroke-width:5;stroke-linecap:butt;stroke-linejoin:miter;stroke-miterlimit:4;stroke-opacity:1"
       sodipodi:nodetypes="cccccccc"
       id="path14684"
       d="M 264.66115,311.01114 C 289.60037,352.91582 311.99478,387.695 336.934,429.59969 C 388.16969,404.99978 409.88547,396.68669 454.50463,381.24813 C 474.01491,386.84673 494.54311,376.66746 502.85619,369.03299 C 539.67123,363.94335 582.59383,357.83579 623.98955,353.76408 C 622.97162,347.14755 625.00748,344.60274 623.98955,337.98621 C 581.06694,306.60011 537.63538,273.68712 494.71277,242.30102 C 416.33235,264.52577 343.04157,288.78638 264.66115,311.01114 z " />
    <path
       style="fill:#ffffff;fill-opacity:1;fill-rule:evenodd;stroke:#001873;stroke-width:3.75;stroke-linecap:butt;stroke-linejoin:miter;stroke-miterlimit:4;stroke-opacity:1"
       sodipodi:nodetypes="ccccccccc"
       id="path14685"
       d="M 274.33146,312.53802 C 296.72587,348.16548 319.12027,383.79295 341.51468,419.42041 C 381.21385,398.5529 428.33666,367.46993 465.20346,375.77302 C 463.41399,363.50114 469.18224,356.62763 476.39007,348.67445 C 416.502,338.32552 386.6428,372.7654 344.0595,389.39155 C 343.21123,398.04393 342.36295,406.69632 341.51468,415.3487 C 342.70226,407.03563 342.87191,398.72255 344.05949,390.40948 C 324.71887,360.38062 301.81551,322.71729 282.47489,292.68843 C 276.19766,295.74221 275.51905,305.41253 274.33146,312.53802 z " />
    <path
       style="fill:#ffffff;fill-opacity:1;fill-rule:evenodd;stroke:#001873;stroke-width:3.75;stroke-linecap:butt;stroke-linejoin:miter;stroke-miterlimit:4;stroke-opacity:1"
       sodipodi:nodetypes="csccccc"
       id="path14686"
       d="M 470.79147,360.38062 C 487.24796,328.99452 500.5941,326.77716 532.88505,322.20833 C 558.18346,318.62887 575.92056,319.47328 601.70806,318.28569 C 599.50255,325.7505 603.29171,335.61104 606.6848,345.62066 C 582.42419,346.63859 563.25322,345.1117 536.4478,348.67444 C 518.63406,347.14755 502.85618,358.34476 491.15002,370.05092 C 492.16795,348.33514 479.95281,361.73786 470.79147,360.38062 z " />
    <path
       style="fill:#ffffff;fill-opacity:1;fill-rule:evenodd;stroke:#001873;stroke-width:2.5;stroke-linecap:butt;stroke-linejoin:miter;stroke-miterlimit:4;stroke-opacity:1"
       sodipodi:nodetypes="ccccsc"
       id="path14687"
       d="M 396.48276,273.85678 C 421.93095,298.45669 447.37914,323.05661 472.82733,347.65652 C 411.15789,340.02206 378.24489,377.43089 343.55053,389.64603 C 323.53129,357.92062 302.23964,324.15936 282.2204,292.43395 C 307.32928,280.38848 323.90617,260.543 360.34634,257.56994 C 374.47078,256.41756 385.45522,265.88301 396.48276,273.85678 z " />
    <path
       style="fill:#ffffff;fill-opacity:1;fill-rule:evenodd;stroke:#001873;stroke-width:2.5;stroke-linecap:butt;stroke-linejoin:miter;stroke-miterlimit:4;stroke-opacity:1"
       sodipodi:nodetypes="ccccc"
       id="path950"
       d="M 476.49663,348.91674 C 495.45093,316.88638 534.55916,321.56497 601.37906,316.52649 C 566.10967,292.53371 530.84028,268.54092 495.57089,244.54814 C 449.38479,253.54544 418.31414,234.47117 393.36165,270.10046 L 476.49663,348.91674 z " />
  </g>
</svg>
